<?xml version="1.0" encoding="iso-8859-1"?>
<!-- Generator: Adobe Illustrator 19.0.0, SVG Export Plug-In . SVG Version: 6.00 Build 0)  -->
<svg version="1.1" id="Layer_1" xmlns="http://www.w3.org/2000/svg" xmlns:xlink="http://www.w3.org/1999/xlink" x="0px" y="0px"
	 viewBox="0 0 512 512" style="enable-background:new 0 0 512 512;" xml:space="preserve">
<g>
	<path d="M264.828,370.759c0,4.873-3.955,8.828-8.828,8.828s-8.828-3.955-8.828-8.828c0-4.873,3.955-8.828,8.828-8.828
		S264.828,365.886,264.828,370.759"/>
	<path style="fill:#8C5236;" d="M123.586,300.138C55.331,300.138,0,244.807,0,176.552v211.862c0,29.255,23.711,52.966,52.966,52.966
		h406.069c29.255,0,52.966-23.711,52.966-52.966V176.552c0,68.255-55.331,123.586-123.586,123.586H123.586z"/>
	<g>
		<polygon style="fill:#BEA280;" points="450.207,441.379 467.862,441.379 467.862,264.828 450.207,264.828 		"/>
		<polygon style="fill:#BEA280;" points="44.138,441.379 61.793,441.379 61.793,264.828 44.138,264.828 		"/>
		<path style="fill:#BEA280;" d="M282.483,344.276L282.483,344.276c0-4.873-3.955-8.828-8.828-8.828h-35.31
			c-4.873,0-8.828,3.955-8.828,8.828c0,4.873-3.955,8.828-8.828,8.828h-17.655v52.966h105.931v-52.966H291.31
			C286.438,353.103,282.483,349.149,282.483,344.276"/>
	</g>
	<path style="fill:#724530;" d="M388.414,300.138c68.255,0,123.586-55.331,123.586-123.586v-70.621c0-19.5-15.81-35.31-35.31-35.31
		H35.31c-19.5,0-35.31,15.81-35.31,35.31v70.621c0,68.255,55.331,123.586,123.586,123.586H388.414z"/>
	<path style="fill:#CCD0D2;" d="M218.548,258.142L218.548,258.142c-6.894-6.894-6.894-18.07,0-24.964l49.938-49.938
		c6.894-6.894,18.07-6.894,24.964,0c6.894,6.894,6.894,18.07,0,24.964l-49.938,49.938
		C236.618,265.036,225.442,265.036,218.548,258.142"/>
	<g>
		<path style="fill:#ABB0B2;" d="M218.548,233.174l38.965-38.965h-72.13v52.966h28.142
			C213.093,242.16,214.717,237.005,218.548,233.174"/>
		<path style="fill:#ABB0B2;" d="M298.478,194.207c0.433,5.014-1.192,10.161-5.023,14.001l-38.974,38.965h72.139v-52.966H298.478z"
			/>
	</g>
</g>
<g>
</g>
<g>
</g>
<g>
</g>
<g>
</g>
<g>
</g>
<g>
</g>
<g>
</g>
<g>
</g>
<g>
</g>
<g>
</g>
<g>
</g>
<g>
</g>
<g>
</g>
<g>
</g>
<g>
</g>
</svg>
