<svg xmlns="http://www.w3.org/2000/svg" version="1.1" xmlns:xlink="http://www.w3.org/1999/xlink" xmlns:svgjs="http://svgjs.dev/svgjs" viewBox="0 0 800 800"><circle r="14.5" cx="94" cy="102" fill="hsl(104, 75%, 70%)" opacity="0.27"></circle><circle r="17.5" cx="557" cy="174" fill="hsl(172, 75%, 70%)" opacity="0.77"></circle><circle r="13.5" cx="90" cy="771" fill="hsl(154, 75%, 70%)" opacity="0.54"></circle><circle r="20" cx="699" cy="167" fill="hsl(228, 75%, 70%)" opacity="0.44"></circle><circle r="17" cx="668" cy="376" fill="hsl(197, 75%, 70%)" opacity="0.25"></circle><circle r="19.5" cx="490" cy="30" fill="hsl(287, 75%, 70%)" opacity="0.68"></circle><circle r="20.5" cx="626" cy="187" fill="hsl(202, 75%, 70%)" opacity="0.31"></circle><circle r="15.5" cx="564" cy="712" fill="hsl(156, 75%, 70%)" opacity="0.79"></circle><circle r="16" cx="741" cy="322" fill="hsl(202, 75%, 70%)" opacity="0.38"></circle><circle r="15.5" cx="761" cy="771" fill="hsl(202, 75%, 70%)" opacity="0.88"></circle><circle r="14.5" cx="181" cy="514" fill="hsl(159, 75%, 70%)" opacity="0.66"></circle><circle r="15" cx="83" cy="495" fill="hsl(153, 75%, 70%)" opacity="0.36"></circle><circle r="17" cx="611" cy="37" fill="hsl(268, 75%, 70%)" opacity="0.38"></circle><circle r="11.5" cx="294" cy="533" fill="hsl(96, 75%, 70%)" opacity="0.80"></circle><circle r="12.5" cx="487" cy="708" fill="hsl(75, 75%, 70%)" opacity="0.45"></circle><circle r="14.5" cx="135" cy="311" fill="hsl(158, 75%, 70%)" opacity="0.22"></circle><circle r="14" cx="482" cy="145" fill="hsl(147, 75%, 70%)" opacity="0.36"></circle><circle r="15" cx="85" cy="358" fill="hsl(153, 75%, 70%)" opacity="0.57"></circle><circle r="13.5" cx="407" cy="135" fill="hsl(128, 75%, 70%)" opacity="0.37"></circle><circle r="18.5" cx="687" cy="238" fill="hsl(198, 75%, 70%)" opacity="0.70"></circle><circle r="15.5" cx="764" cy="267" fill="hsl(202, 75%, 70%)" opacity="0.92"></circle><circle r="17" cx="705" cy="588" fill="hsl(200, 75%, 70%)" opacity="0.17"></circle><circle r="12" cx="461" cy="637" fill="hsl(56, 75%, 70%)" opacity="0.69"></circle><circle r="16.5" cx="34" cy="686" fill="hsl(154, 75%, 70%)" opacity="0.51"></circle><circle r="11" cx="360" cy="428" fill="hsl(49, 75%, 70%)" opacity="0.62"></circle><circle r="16" cx="197" cy="310" fill="hsl(157, 75%, 70%)" opacity="0.90"></circle><circle r="15" cx="247" cy="104" fill="hsl(123, 75%, 70%)" opacity="0.34"></circle><circle r="11" cx="414" cy="486" fill="hsl(39, 75%, 70%)" opacity="0.45"></circle><circle r="10" cx="337" cy="710" fill="hsl(65, 75%, 70%)" opacity="0.35"></circle><circle r="18.5" cx="457" cy="84" fill="hsl(238, 75%, 70%)" opacity="0.88"></circle><circle r="10" cx="425" cy="202" fill="hsl(43, 75%, 70%)" opacity="0.28"></circle><circle r="17.5" cx="764" cy="644" fill="hsl(202, 75%, 70%)" opacity="0.87"></circle><circle r="17.5" cx="608" cy="264" fill="hsl(180, 75%, 70%)" opacity="0.76"></circle><circle r="16.5" cx="382" cy="79" fill="hsl(208, 75%, 70%)" opacity="0.68"></circle><circle r="17.5" cx="416" cy="27" fill="hsl(281, 75%, 70%)" opacity="0.33"></circle><circle r="15" cx="101" cy="708" fill="hsl(155, 75%, 70%)" opacity="0.37"></circle><circle r="15" cx="542" cy="418" fill="hsl(134, 75%, 70%)" opacity="0.42"></circle><circle r="16" cx="222" cy="765" fill="hsl(149, 75%, 70%)" opacity="0.65"></circle><circle r="13" cx="244" cy="501" fill="hsl(136, 75%, 70%)" opacity="0.28"></circle><circle r="13" cx="309" cy="240" fill="hsl(85, 75%, 70%)" opacity="0.45"></circle><circle r="16" cx="716" cy="419" fill="hsl(201, 75%, 70%)" opacity="0.51"></circle><circle r="14.5" cx="143" cy="161" fill="hsl(126, 75%, 70%)" opacity="0.13"></circle><circle r="14.5" cx="252" cy="701" fill="hsl(127, 75%, 70%)" opacity="0.37"></circle><circle r="12.5" cx="529" cy="770" fill="hsl(122, 75%, 70%)" opacity="0.31"></circle><circle r="14.5" cx="281" cy="174" fill="hsl(105, 75%, 70%)" opacity="0.47"></circle><circle r="10.5" cx="337" cy="305" fill="hsl(65, 75%, 70%)" opacity="0.74"></circle><circle r="11" cx="440" cy="569" fill="hsl(48, 75%, 70%)" opacity="0.41"></circle><circle r="10.5" cx="316" cy="655" fill="hsl(75, 75%, 70%)" opacity="0.99"></circle><circle r="14.5" cx="80" cy="570" fill="hsl(153, 75%, 70%)" opacity="0.52"></circle><circle r="11" cx="411" cy="701" fill="hsl(37, 75%, 70%)" opacity="0.90"></circle><circle r="11.5" cx="311" cy="593" fill="hsl(85, 75%, 70%)" opacity="0.17"></circle><circle r="13" cx="172" cy="97" fill="hsl(90, 75%, 70%)" opacity="0.14"></circle><circle r="9.5" cx="372" cy="768" fill="hsl(43, 75%, 70%)" opacity="0.87"></circle></svg>